#!OML:ASF H:\Terrain\Patient Classification 1\Animal2\Wednesday\Animal2.ASF
:FULLY-SPECIFIED
:DEGREES
398
root 10.3394 17.6171 9.94222 0.893868 -6.41103 0.645434
lowerback 3.59165 0.941276 0.731472
upperback -1.45184 1.26126 -0.951569
thorax -3.47077 0.600385 -1.47208
lowerneck -1.01572 6.34631 16.1093
upperneck 3.61447 9.05215 -19.1143
head 2.87113 4.41423 -8.26081
rclavicle 1.27044e-014 -1.59028e-015
rhumerus -29.7249 2.74815 -89.2794
rradius 27.4909
rwrist 13.1075
rhand -16.5086 20.1544
rfingers 7.12502
rthumb 9.70951 -9.60182
lclavicle 1.27044e-014 -1.59028e-015
lhumerus -45.5916 2.15849 79.9996
lradius 20.7833
lwrist 2.95121
lhand -20.8969 23.2138
lfingers 7.12502
lthumb 5.47389 53.1231
rfemur 6.97816 2.94152 19.8593
rtibia 43.4509
rfoot 6.50761 7.17136
rtoes 11.8041
lfemur -24.799 3.55289 -23.5163
ltibia 27.5284
lfoot -5.83262 2.03518
ltoes -22.7014
399
root 10.3537 17.6661 10.1096 0.966541 -6.46524 0.963603
lowerback 3.37271 0.811747 0.384344
upperback -1.34008 1.06946 -1.0218
thorax -3.24244 0.51356 -1.33199
lowerneck -1.30379 6.56131 16.1721
upperneck 3.74319 9.33693 -19.2857
head 3.02264 4.53669 -8.29728
rclavicle 3.56298e-015 -2.98177e-015
rhumerus -29.5555 2.71234 -89.3199
rradius 26.7073
rwrist 13.279
rhand -16.1772 20.1722
rfingers 7.12502
rthumb 10.0292 -9.56879
lclavicle 3.56298e-015 -2.98177e-015
lhumerus -44.9368 1.92888 80.1721
lradius 21.2586
lwrist 3.88809
lhand -20.9419 23.3115
lfingers 7.12502
lthumb 5.43043 53.2219
rfemur 5.01268 2.84327 19.45
rtibia 46.1706
rfoot 6.83174 7.14059
rtoes 8.42748
lfemur -23.895 3.34099 -23.9124
ltibia 26.8967
lfoot -6.07476 2.28569
ltoes -22.0791
400
root 10.3697 17.6993 10.2785 0.879978 -6.36716 1.16629
lowerback 3.40179 0.702434 0.227377
upperback -1.31997 0.914843 -1.06558
thorax -3.24373 0.43937 -1.27987
lowerneck -1.21496 6.60424 16.0969
upperneck 3.80125 9.4234 -19.3704
head 3.04084 4.58026 -8.30914
rclavicle 6.58513e-015 1.33186e-014
rhumerus -29.7463 2.8128 -89.3435
rradius 26.1561
rwrist 13.2008
rhand -15.657 20.0497
rfingers 7.12502
rthumb 10.531 -9.6665
lclavicle 6.58513e-015 1.33186e-014
lhumerus -44.4965 1.59211 80.4147
lradius 21.6877
lwrist 4.60805
lhand -20.8512 23.3617
lfingers 7.12502
lthumb 5.51797 53.2699
rfemur 3.44681 2.72632 19.1447
rtibia 48.7805
rfoot 6.12122 6.20292
rtoes 6.55235
lfemur -22.8004 3.39593 -24.2494
ltibia 26.2173
lfoot -6.37141 2.1385
ltoes -20.8689
401
root 10.382 17.7141 10.4409 0.711759 -6.29732 1.46019
lowerback 3.58507 0.679126 0.0219197
upperback -1.39297 0.869393 -1.15429
thorax -3.42529 0.419067 -1.2568
lowerneck -0.970907 6.57999 15.9979
upperneck 3.99981 9.44911 -19.3538
head 3.05441 4.60116 -8.29304
rclavicle 4.58137e-015 -4.96962e-016
rhumerus -30.1993 2.44337 -89.2172
rradius 25.5822
rwrist 13.4773
rhand -15.3711 20.2868
rfingers 7.12502
rthumb 10.8068 -9.41514
lclavicle 4.58137e-015 -4.96962e-016
lhumerus -44.1279 1.15451 80.6382
lradius 21.9506
lwrist 4.98669
lhand -20.7518 23.2861
lfingers 7.12502
lthumb 5.61399 53.1918
rfemur 2.17289 3.12407 18.8525
rtibia 51.227
rfoot 5.07756 4.1976
rtoes 9.73836
lfemur -21.6578 3.65867 -24.6888
ltibia 25.4886
lfoot -6.65428 1.79401
ltoes -19.8779
402
root 10.3893 17.7466 10.6047 0.578967 -6.2765 2.04664
lowerback 3.51845 0.638305 -0.5764
upperback -1.31742 0.781563 -1.3189
thorax -3.31744 0.386727 -1.08329
lowerneck -0.955093 6.68921 16.1751
upperneck 4.17509 9.63304 -19.5248
head 3.15429 4.6901 -8.36726
rclavicle -6.08778e-015 1.68967e-015
rhumerus -30.323 1.87483 -89.0539
rradius 24.9504
rwrist 14.109
rhand -15.3739 20.6207
rfingers 7.12502
rthumb 10.8041 -9.08137
lclavicle -6.08778e-015 1.68967e-015
lhumerus -43.5963 0.711144 80.8326
lradius 22.4645
lwrist 5.45069
lhand -20.5438 23.6421
lfingers 7.12502
lthumb 5.81482 53.5423
rfemur 0.571462 3.04614 18.2979
rtibia 53.5495
rfoot 3.71091 3.0151
rtoes -0.195893
lfemur -20.5648 3.8127 -25.4149
ltibia 24.7913
lfoot -6.98379 1.64998
ltoes -19.8847
